<svg width="1024" height="299" viewBox="0 0 1024 299" fill="none" xmlns="http://www.w3.org/2000/svg">
<path d="M1024 299H0V0H1024V299ZM742.339 44.5225C738.753 44.5225 735.98 45.5604 734.024 47.6348C732.069 49.5363 731.09 52.5614 731.09 56.71V155.246C731.09 173.744 727.097 187.573 719.108 196.735C711.121 205.723 699.383 210.22 683.897 210.22C668.41 210.22 656.673 205.723 648.685 196.735C640.697 187.573 636.703 173.744 636.703 155.246V56.71C636.703 52.5613 635.725 49.5363 633.77 47.6348C631.812 45.5603 628.959 44.5225 625.21 44.5225C621.624 44.5225 618.853 45.5603 616.896 47.6348C614.941 49.5363 613.962 52.5614 613.962 56.71V156.024C613.962 168.471 615.429 179.448 618.364 188.956C621.46 198.289 625.943 206.156 631.812 212.552C637.681 218.776 644.935 223.53 653.575 226.813C662.378 229.926 672.485 231.482 683.897 231.482C699.057 231.482 711.772 228.63 722.043 222.925C732.476 217.22 740.301 208.749 745.518 197.514C750.897 186.277 753.587 172.446 753.587 156.024V56.71C753.587 52.5613 752.608 49.5363 750.652 47.6348C748.696 45.5603 745.925 44.5225 742.339 44.5225ZM365.335 44.5225C361.749 44.5225 358.977 45.5603 357.021 47.6348C355.064 49.7092 354.085 52.8208 354.085 56.9697V218.517C354.085 222.492 355.064 225.605 357.021 227.852C358.977 229.926 361.749 230.963 365.335 230.963C369.247 230.963 372.099 229.926 373.893 227.852C375.849 225.605 376.826 222.492 376.826 218.517V56.9697C376.826 52.8208 375.849 49.7092 373.893 47.6348C371.937 45.5603 369.084 44.5225 365.335 44.5225ZM541.324 44.5225C538.064 44.5225 535.537 45.3008 533.745 46.8564C531.952 48.4123 530.402 50.7466 529.098 53.8584L470.524 198.625L411.726 53.8584C410.421 50.7466 408.873 48.4123 407.08 46.8564C405.45 45.3007 402.923 44.5225 399.499 44.5225C396.89 44.5225 394.608 45.2148 392.652 46.5977C390.859 47.8077 389.637 49.6229 388.985 52.043C388.495 54.2903 388.902 57.0564 390.207 60.3408L456.474 220.851C457.941 224.307 459.735 226.901 461.854 228.63C463.972 230.186 466.743 230.963 470.167 230.963C473.59 230.963 476.28 230.186 478.236 228.63C480.355 226.901 482.068 224.306 483.372 220.851L549.882 60.3408C551.024 57.2292 551.35 54.5489 550.861 52.3018C550.536 49.8817 549.476 47.9805 547.683 46.5977C546.052 45.2148 543.933 44.5225 541.324 44.5225ZM574.663 44.5225C571.077 44.5225 568.305 45.5603 566.349 47.6348C564.393 49.7092 563.413 52.8208 563.413 56.9697V218.517C563.413 222.492 564.393 225.605 566.349 227.852C568.305 229.926 571.077 230.963 574.663 230.963C578.575 230.963 581.428 229.926 583.221 227.852C585.177 225.605 586.154 222.492 586.154 218.517V56.9697C586.154 52.8208 585.177 49.7092 583.221 47.6348C581.265 45.5603 578.412 44.5225 574.663 44.5225ZM939.536 44.5225C936.601 44.5225 934.319 45.1279 932.688 46.3379C931.058 47.5481 929.51 49.6229 928.043 52.5615L866.3 175.447L804.557 52.5615C803.091 49.6228 801.46 47.5481 799.667 46.3379C798.037 45.1279 795.753 44.5225 792.82 44.5225C789.56 44.5225 786.952 45.5603 784.996 47.6348C783.203 49.5364 782.306 52.3025 782.306 55.9326V219.555C782.306 223.011 783.203 225.777 784.996 227.852C786.789 229.926 789.315 230.963 792.575 230.963C795.999 230.963 798.525 229.926 800.155 227.852C801.948 225.777 802.846 223.011 802.846 219.555V91.0527L856.396 196.216C857.538 198.29 858.841 199.934 860.309 201.143C861.939 202.353 863.895 202.958 866.177 202.958C868.623 202.958 870.497 202.44 871.802 201.402C873.269 200.192 874.654 198.464 875.959 196.216L929.266 90.459V219.555C929.266 223.011 930.082 225.777 931.712 227.852C933.505 229.926 936.113 230.963 939.536 230.963C942.96 230.963 945.486 229.926 947.116 227.852C948.909 225.777 949.807 223.011 949.807 219.555V55.9326C949.807 52.3025 948.909 49.5364 947.116 47.6348C945.323 45.5604 942.797 44.5225 939.536 44.5225ZM212.575 46.3379C208.663 46.3379 205.647 47.4617 203.528 49.709C201.409 51.9563 200.35 55.1548 200.35 59.3037V216.183C200.35 220.331 201.409 223.53 203.528 225.777C205.647 228.024 208.663 229.148 212.575 229.148H273.463C291.721 229.148 305.821 224.827 315.765 216.183C325.872 207.367 330.927 194.834 330.927 178.583C330.927 165.964 327.42 155.765 320.412 147.985C315.073 141.785 308.148 137.529 299.638 135.218C306.874 132.333 312.82 128.032 317.478 122.314C323.672 114.708 326.77 105.286 326.77 94.0498C326.769 84.0235 324.568 75.4665 320.167 68.3789C315.765 61.2915 309.326 55.8461 300.851 52.043C292.536 48.2398 282.429 46.3379 270.528 46.3379H212.575ZM110.172 48.4453C108.594 48.4826 107.203 49.0967 105.999 50.2881C104.796 51.4795 103.968 53.2777 103.515 55.6816L97.0615 90.7158L90.6104 55.6816C90.1569 53.2778 89.3284 51.4795 88.125 50.2881C86.9215 49.0967 85.5304 48.4828 83.9521 48.4453C82.4437 48.3564 80.9251 48.8775 79.3965 50.0088C77.5204 51.3973 76.377 52.9554 75.9678 54.6826C75.51 56.3366 75.4841 58.3297 75.8887 60.6602L89.7139 130.615L89.4629 131.977L31.1406 93.9434C29.2279 92.6193 27.4578 91.902 25.8311 91.791C24.225 91.5554 22.4145 92.1825 20.3994 93.6738C18.8707 94.8054 17.8182 96.1876 17.2422 97.8193C16.6663 99.4509 16.6672 101.094 17.2451 102.748C17.8232 104.402 19.1037 105.866 21.0859 107.139L86.2607 148.558L43.6055 212.952C42.0954 215.232 41.4574 217.445 41.6924 219.591C41.9763 221.663 43.2297 223.522 45.4531 225.169C47.6074 226.763 49.6898 227.373 51.6992 226.997C53.6878 226.496 55.4373 225.106 56.9473 222.826L97.0615 162.269L137.178 222.826C138.688 225.105 140.437 226.496 142.425 226.997C144.434 227.373 146.517 226.763 148.671 225.169C150.894 223.522 152.148 221.663 152.432 219.591C152.667 217.445 152.029 215.232 150.52 212.952L107.862 148.558L173.039 107.139C175.021 105.866 176.301 104.402 176.878 102.748C177.457 101.094 177.457 99.4509 176.882 97.8193C176.306 96.1876 175.252 94.8052 173.724 93.6738C171.71 92.1825 169.899 91.5553 168.293 91.791C166.666 91.902 164.897 92.6193 162.984 93.9434L104.66 131.977L104.409 130.613L118.235 60.6602C118.64 58.3295 118.614 56.3366 118.156 54.6826C117.747 52.9555 116.605 51.3972 114.729 50.0088C113.2 48.8773 111.681 48.3564 110.172 48.4453ZM271.017 146.171C283.732 146.171 293.187 148.763 299.383 153.949C305.577 159.135 308.675 167.174 308.675 178.065C308.675 188.957 305.577 197.081 299.383 202.44C293.187 207.625 283.732 210.22 271.017 210.22H222.356V146.171H271.017ZM267.104 65.2676C279.494 65.2676 288.786 67.9467 294.98 73.3057C301.339 78.4918 304.518 86.0986 304.518 96.125C304.517 106.151 301.339 113.844 294.98 119.203C288.786 124.389 279.494 126.981 267.104 126.981H222.356V65.2676H267.104Z" fill="#EEC1F9"/>
</svg>
