<svg width="635" height="169" viewBox="0 0 635 169" fill="none" xmlns="http://www.w3.org/2000/svg">
<path d="M131.821 134C129.395 134 127.525 133.343 126.211 132.029C124.897 130.715 124.24 128.844 124.24 126.418V34.6788C124.24 32.2526 124.897 30.3825 126.211 29.0683C127.525 27.7541 129.395 27.097 131.821 27.097H167.759C175.139 27.097 181.406 28.209 186.562 30.433C191.818 32.657 195.811 35.8413 198.541 39.986C201.27 44.1307 202.635 49.1347 202.635 54.9979C202.635 61.5688 200.714 67.0782 196.873 71.5261C193.031 75.9741 187.775 78.9563 181.103 80.4726V78.1981C188.584 79.1079 194.447 81.8879 198.693 86.538C203.039 91.0871 205.213 97.0514 205.213 104.431C205.213 113.934 202.079 121.263 195.811 126.418C189.645 131.473 180.901 134 169.579 134H131.821ZM137.887 122.931H168.062C175.947 122.931 181.81 121.414 185.652 118.382C189.493 115.248 191.414 110.497 191.414 104.128C191.414 97.759 189.493 93.0583 185.652 90.0256C181.81 86.9929 175.947 85.4766 168.062 85.4766H137.887V122.931ZM137.887 74.2556H165.636C173.319 74.2556 179.081 72.7392 182.922 69.7065C186.865 66.5727 188.836 62.0742 188.836 56.211C188.836 50.3478 186.865 45.8998 182.922 42.8671C179.081 39.7333 173.319 38.1664 165.636 38.1664H137.887V74.2556ZM226.55 135.061C224.326 135.061 222.607 134.455 221.394 133.242C220.181 131.928 219.574 130.108 219.574 127.783V33.3141C219.574 30.8879 220.181 29.0683 221.394 27.8552C222.607 26.6421 224.326 26.0356 226.55 26.0356C228.875 26.0356 230.644 26.6421 231.857 27.8552C233.07 29.0683 233.676 30.8879 233.676 33.3141V127.783C233.676 130.108 233.07 131.928 231.857 133.242C230.745 134.455 228.976 135.061 226.55 135.061ZM291.558 135.061C289.435 135.061 287.717 134.607 286.403 133.697C285.089 132.686 283.977 131.169 283.067 129.148L241.974 35.2853C241.165 33.3646 240.912 31.7472 241.216 30.433C241.62 29.0178 242.378 27.9563 243.49 27.2487C244.703 26.44 246.118 26.0356 247.736 26.0356C249.859 26.0356 251.426 26.4905 252.437 27.4003C253.549 28.3101 254.509 29.6748 255.318 31.4945L294.439 122.324H289.132L328.102 31.4945C328.911 29.6748 329.872 28.3101 330.984 27.4003C332.095 26.4905 333.662 26.0356 335.684 26.0356C337.302 26.0356 338.616 26.44 339.627 27.2487C340.739 28.0574 341.396 29.1694 341.598 30.5847C341.901 31.8988 341.699 33.4657 340.991 35.2853L299.747 129.148C298.938 131.169 297.876 132.686 296.562 133.697C295.349 134.607 293.681 135.061 291.558 135.061ZM356.358 135.061C354.134 135.061 352.415 134.455 351.202 133.242C349.989 131.928 349.382 130.108 349.382 127.783V33.3141C349.382 30.8879 349.989 29.0683 351.202 27.8552C352.415 26.6421 354.134 26.0356 356.358 26.0356C358.683 26.0356 360.452 26.6421 361.665 27.8552C362.878 29.0683 363.484 30.8879 363.484 33.3141V127.783C363.484 130.108 362.878 131.928 361.665 133.242C360.553 134.455 358.784 135.061 356.358 135.061ZM424.096 135.365C417.019 135.365 410.752 134.455 405.293 132.635C399.935 130.715 395.437 127.935 391.797 124.295C388.158 120.555 385.378 115.955 383.458 110.497C381.638 104.937 380.728 98.5172 380.728 91.2387V33.1625C380.728 30.7363 381.335 28.9672 382.548 27.8552C383.761 26.6421 385.479 26.0356 387.703 26.0356C390.028 26.0356 391.797 26.6421 393.011 27.8552C394.224 28.9672 394.83 30.7363 394.83 33.1625V90.7838C394.83 101.601 397.307 109.688 402.26 115.046C407.214 120.302 414.492 122.931 424.096 122.931C433.699 122.931 440.978 120.302 445.931 115.046C450.885 109.688 453.361 101.601 453.361 90.7838V33.1625C453.361 30.7363 453.968 28.9672 455.181 27.8552C456.394 26.6421 458.113 26.0356 460.337 26.0356C462.561 26.0356 464.279 26.6421 465.492 27.8552C466.705 28.9672 467.312 30.7363 467.312 33.1625V91.2387C467.312 100.842 465.644 108.93 462.308 115.501C459.073 122.071 454.221 127.025 447.751 130.361C441.382 133.697 433.497 135.365 424.096 135.365ZM491.489 135.061C489.467 135.061 487.901 134.455 486.789 133.242C485.677 132.029 485.121 130.411 485.121 128.39V32.7075C485.121 30.5847 485.677 28.9672 486.789 27.8552C488.002 26.6421 489.619 26.0356 491.641 26.0356C493.46 26.0356 494.876 26.3894 495.887 27.097C496.999 27.8047 498.01 29.0178 498.919 30.7363L539.558 107.009H534.857L575.495 30.7363C576.405 29.0178 577.365 27.8047 578.376 27.097C579.387 26.3894 580.802 26.0356 582.622 26.0356C584.644 26.0356 586.211 26.6421 587.323 27.8552C588.435 28.9672 588.991 30.5847 588.991 32.7075V128.39C588.991 130.411 588.435 132.029 587.323 133.242C586.312 134.455 584.745 135.061 582.622 135.061C580.499 135.061 578.882 134.455 577.77 133.242C576.759 132.029 576.253 130.411 576.253 128.39V46.658H579.589L543.197 114.742C542.388 116.057 541.529 117.067 540.619 117.775C539.81 118.382 538.648 118.685 537.131 118.685C535.716 118.685 534.503 118.331 533.492 117.623C532.582 116.916 531.774 115.955 531.066 114.742L494.219 46.5063H497.858V128.39C497.858 130.411 497.302 132.029 496.19 133.242C495.179 134.455 493.612 135.061 491.489 135.061Z" fill="#4C2712"/>
<path d="M28.1862 131.673C29.5221 132.605 30.813 132.962 32.0591 132.742C33.2923 132.449 34.3771 131.636 35.3135 130.303L62.0008 92.3127C62.9674 90.9367 63.3628 89.6425 63.1868 88.4303C62.9678 87.188 62.1903 86.1007 60.8545 85.1684C59.5187 84.236 58.2492 83.8948 57.0463 84.1446C55.8002 84.3643 54.6939 85.1621 53.7273 86.5381L27.0399 124.529C26.1035 125.862 25.7082 127.156 25.8539 128.411C26.0299 129.623 26.8073 130.71 28.1862 131.673Z" fill="#4C2712"/>
<path d="M92.1928 131.673C90.857 132.605 89.566 132.962 88.3199 132.742C87.0868 132.449 86.002 131.636 85.0656 130.303L58.3782 92.3127C57.4116 90.9367 57.0163 89.6426 57.1922 88.4303C57.4113 87.1881 58.1887 86.1007 59.5246 85.1684C60.8604 84.2361 62.1298 83.8948 63.3328 84.1446C64.5789 84.3643 65.6852 85.1621 66.6518 86.5381L93.3392 124.529C94.2756 125.862 94.6709 127.156 94.5251 128.411C94.3492 129.623 93.5717 130.71 92.1928 131.673Z" fill="#4C2712"/>
<path d="M56.8979 88.6058C58.0614 89.4178 59.2122 89.8365 60.3503 89.8619C61.4755 89.8142 62.6527 89.4182 63.8819 88.6741L107.304 62.6517C108.533 61.9075 109.327 61.0518 109.685 60.0844C110.044 59.117 110.044 58.1562 109.687 57.202C109.33 56.2478 108.677 55.4398 107.729 54.7782C106.48 53.906 105.357 53.5389 104.361 53.6768C103.352 53.7417 102.255 54.1612 101.069 54.9355L60.8745 79.6541L63.6538 81.5939L73.3198 35.4722C73.5707 34.1093 73.5542 32.9444 73.2703 31.9772C73.0166 30.9671 72.3081 30.056 71.1446 29.244C70.1966 28.5823 69.2547 28.2774 68.3191 28.3294C67.3405 28.3512 66.478 28.7105 65.7317 29.4072C64.9855 30.1039 64.4717 31.1552 64.1906 32.561L54.5096 82.1326C54.2284 83.5385 54.2577 84.7765 54.5976 85.8468C54.9245 86.844 55.6913 87.7637 56.8979 88.6058Z" fill="#4C2712"/>
<path d="M63.4812 88.6058C62.3177 89.4178 61.1669 89.8365 60.0288 89.8619C58.9035 89.8142 57.7263 89.4183 56.4972 88.6741L13.0754 62.6517C11.8462 61.9075 11.0524 61.0518 10.6939 60.0844C10.3355 59.117 10.3348 58.1562 10.692 57.202C11.0492 56.2478 11.7018 55.4399 12.6498 54.7782C13.8995 53.906 15.0223 53.5389 16.0183 53.6768C17.0271 53.7417 18.1246 54.1612 19.3107 54.9355L59.5047 79.6541L56.7253 81.594L47.0594 35.4722C46.8085 34.1094 46.8249 32.9444 47.1088 31.9772C47.3625 30.9671 48.0711 30.056 49.2346 29.244C50.1826 28.5823 51.1244 28.2774 52.0599 28.3294C53.0386 28.3513 53.901 28.7105 54.6473 29.4072C55.3936 30.1039 55.9073 31.1552 56.1885 32.561L65.8696 82.1326C66.1507 83.5385 66.1214 84.7765 65.7815 85.8468C65.4545 86.844 64.6877 87.7637 63.4812 88.6058Z" fill="#4C2712"/>
</svg>
