<svg width="370" height="146" viewBox="0 0 370 146" fill="none" xmlns="http://www.w3.org/2000/svg">
<g clip-path="url(#clip0_438_2215)">
<path d="M18.1863 40.7973H10.8137V72H0V1H10.8137V29.4377H18.1863V1H29V72H18.1863V40.7973Z" fill="#4C2712"/>
<path d="M47.1558 73H45.0726C36.5412 73 32 68.2885 32 59.4363V45.1004H42.6146V57.6009C42.6146 60.8688 43.6507 62.6034 46.1197 62.6034C48.5887 62.6034 49.6249 60.8688 49.6249 56.4483V54.8143C49.6249 49.7224 49.1509 47.887 45.271 42.795L38.4481 33.9428C33.9069 27.9779 32.5732 23.356 32.5732 16.2496V13.9442C32.5732 4.42051 37.3128 0 45.745 0H47.74C56.5469 0 59.9639 3.93929 59.9639 12.411V24.1505H49.6359V13.8547C49.6359 11.4486 49.1619 9.62441 46.6047 9.62441C44.0475 9.62441 43.4743 11.2583 43.4743 14.6269V15.9698C43.4743 20.0098 44.2349 22.2257 47.8282 26.9371L54.6511 35.8789C59.4789 42.2243 61 45.8838 61 53.9638V56.2692C61 66.7553 56.5469 73 47.1669 73" fill="#4C2712"/>
<path d="M89.425 1V11.3047H75.7364V29.9152H86.4839V40.6974H75.7364V61.2179H90V72H65V1H89.425Z" fill="#4C2712"/>
<path d="M119.055 58.6417H111.162L109.718 72H100L108.766 1H121.663L131 72H120.51L119.066 58.6417M117.901 48.0483L115.013 21.8092L112.225 48.0483H117.901Z" fill="#4C2712"/>
<path d="M144.038 72H133V1H150.882C158.203 1 161.92 4.05364 161.92 11.9709V24.5741C161.92 30.4926 159.089 32.7801 157.134 33.6351C159.578 34.6789 161.92 36.5999 161.92 41.3636V66.2702C161.92 69.1351 162.5 70.4676 163 71.5225V72H152.053C151.564 71.2338 150.973 69.9901 150.973 66.1814V44.8059C150.973 41.6523 150.393 40.3198 146.869 40.3198H144.038V72ZM144.038 30.2039H146.971C149.995 30.2039 150.973 28.294 150.973 25.1404V15.2133C150.973 12.1597 150.291 10.6384 146.971 10.6384H144.038V30.2039Z" fill="#4C2712"/>
<path d="M183.873 11.3047V72H173.127V11.3047H164V1H193V11.3047H183.873Z" fill="#4C2712"/>
<path d="M219.061 58.6417H211.166L209.721 72H200L208.769 1H221.66L231 72H220.506L219.061 58.6417ZM217.908 48.0483L215.018 21.8092L212.23 48.0483H217.908Z" fill="#4C2712"/>
<path d="M241.801 1L251.11 39.0762V1H261V72H252.171L241.801 31.1589V72H232V1H241.801Z" fill="#4C2712"/>
<path d="M265 1H281.727C291.098 1 294 6.25227 294 14.647V57.8755C294 66.559 290.715 72 281.727 72H265V1ZM275.923 61.6953H278.533C281.817 61.6953 282.785 59.9742 282.785 56.1655V16.1794C282.785 12.0708 281.727 10.6384 279.016 10.6384H275.923V61.6953Z" fill="#4C2712"/>
<path d="M0 74H16.7273C26.109 74 29 79.2523 29 87.647V130.876C29 139.559 25.7153 145 16.7273 145H0V74ZM10.9228 134.695H13.5326C16.8173 134.695 17.7847 132.974 17.7847 129.165V89.1794C17.7847 85.0819 16.7273 83.6495 14.0163 83.6495H10.9228V134.706V134.695Z" fill="#4C2712"/>
<path d="M57.4248 74V84.3158H43.7411V102.915H54.4823V113.708H43.7411V134.218H58V145H33V74H57.4248Z" fill="#4C2712"/>
<path d="M75.1558 146H73.0726C64.5412 146 60 141.289 60 132.436V118.1H70.6146V130.601C70.6146 133.869 71.6617 135.603 74.1197 135.603C76.5777 135.603 77.6249 133.869 77.6249 129.448V127.814C77.6249 122.722 77.1509 120.887 73.271 115.795L66.4481 106.943C61.9069 100.978 60.5732 96.3672 60.5732 89.2496V86.9442C60.5732 77.4205 65.3128 73 73.745 73H75.74C84.5469 73 87.9639 76.9505 87.9639 85.411V97.1505H77.6359V86.8547C77.6359 84.4486 77.1619 82.6244 74.6047 82.6244C72.0475 82.6244 71.4743 84.2583 71.4743 87.6269V88.9698C71.4743 93.0098 72.2349 95.2257 75.8282 99.9371L82.6511 108.879C87.4789 115.224 89 118.884 89 126.964V129.269C89 139.755 84.5469 146 75.1669 146" fill="#4C2712"/>
<path d="M103 74H92V145H103V74Z" fill="#4C2712"/>
<path d="M117.399 146C111.045 146 107 140.342 107 132.954V88.3455C107 80.3882 110.082 73 120.391 73H122.509C134.162 73 135.507 80.5779 135.507 89.0151V96.3029H124.918V88.2451C124.918 85.0867 124.145 83.3568 121.455 83.3568C119.147 83.3568 118.082 85.0867 118.082 88.2451V129.974C118.082 133.333 119.427 135.063 121.646 135.063C124.436 135.063 125.691 133.143 125.691 130.454V112.608H120.783V101.671H136V145.029H129.837C129.736 144.65 128.873 141.101 128.01 138.031C127.237 140.431 123.584 145.989 118.094 145.989H117.421" fill="#4C2712"/>
<path d="M149.797 74L159.114 112.076V74H169V145H160.164L149.797 104.159V145H140V74H149.797Z" fill="#4C2712"/>
<path d="M197.156 146H195.073C186.552 146 182 141.289 182 132.436V118.1H192.615V130.601C192.615 133.869 193.651 135.603 196.12 135.603C198.589 135.603 199.625 133.869 199.625 129.448V127.814C199.625 122.722 199.151 120.887 195.271 115.795L188.448 106.943C183.907 100.978 182.573 96.3672 182.573 89.2496V86.9442C182.573 77.4205 187.313 73 195.745 73H197.729C206.536 73 209.953 76.9505 209.953 85.411V97.1505H199.625V86.8547C199.625 84.4486 199.151 82.6244 196.594 82.6244C194.036 82.6244 193.474 84.2583 193.474 87.6269V88.9698C193.474 93.0098 194.235 95.2257 197.828 99.9371L204.651 108.879C209.479 115.224 211 118.884 211 126.964V129.269C211 139.755 206.547 146 197.167 146" fill="#4C2712"/>
<path d="M232.235 130.633V114.015H243V130.533C243 138.222 240.472 146 229.911 146H227.484C216.426 146 214 138.121 214 130.924V87.3161C214 80.0184 217.205 73 227.09 73H229.606C241.635 73 242.989 80.8789 242.989 87.8861V100.66H232.224V88.0761C232.224 85.0028 231.253 83.3711 228.545 83.3711C225.837 83.3711 225.149 84.9134 225.149 88.0761V130.533C225.149 133.707 226.221 135.428 228.635 135.428C231.253 135.428 232.224 133.506 232.224 130.622" fill="#4C2712"/>
<path d="M264.186 113.797H256.814V145H246V74H256.814V102.438H264.186V74H275V145H264.186V113.797Z" fill="#4C2712"/>
<path d="M309 129.192C309 139.183 305.6 146 295.017 146H293.175C282.694 146 279 139.183 279 129.192V89.4284C279 79.5378 282.784 73 293.074 73H294.915C305.589 73 308.989 79.5378 308.989 89.3278V129.192M297.84 88.8472C297.84 85.1033 296.575 83.3711 294.056 83.3711C291.244 83.3711 290.171 85.1927 290.171 88.8472V129.952C290.171 133.025 291.041 135.428 294.147 135.428C297.061 135.428 297.84 133.025 297.84 129.952V88.8472Z" fill="#4C2712"/>
<path d="M342 129.192C342 139.183 338.6 146 328.017 146H326.175C315.694 146 312 139.183 312 129.192V89.4284C312 79.5378 315.784 73 326.074 73H327.915C338.589 73 341.989 79.5378 341.989 89.3278V129.192M330.84 88.8472C330.84 85.1033 329.575 83.3711 327.056 83.3711C324.244 83.3711 323.171 85.1927 323.171 88.8472V129.952C323.171 133.025 324.041 135.428 327.147 135.428C330.061 135.428 330.84 133.025 330.84 129.952V88.8472Z" fill="#4C2712"/>
<path d="M356.804 74V134.029H370V145H346V74H356.804Z" fill="#4C2712"/>
</g>
<defs>
<clipPath id="clip0_438_2215">
<rect width="370" height="146" fill="white"/>
</clipPath>
</defs>
</svg>
