<svg width="120" height="120" viewBox="0 0 120 120" fill="none" xmlns="http://www.w3.org/2000/svg">
<path d="M120 64.7767C119.946 26.0294 87.3888 -4.08542 51.8913 1.94452C24.6543 6.1736 3.1146 31.978 2.19916 61.6629C0.0990359 110.809 55.8331 135.707 86.2795 99.0392C104.394 76.9411 102.316 40.8196 75.6927 27.958C51.9236 16.8276 24.9882 34.534 23.7174 62.5459C22.1557 86.5379 46.851 102.014 65.3752 88.6524C71.8695 83.9005 76.1774 76.0581 76.9205 67.6812C76.9205 67.3211 76.9851 66.2289 76.9959 65.8455C77.2436 61.9882 76.1774 58.1193 74.2065 54.9359C66.0106 42.0511 47.5726 46.013 44.6648 61.2911C44.6001 61.6862 44.5032 62.5692 44.4386 62.9642L44.3955 64.0912C43.8247 69.4472 49.5327 73.3394 53.733 70.4464C55.5531 69.2846 56.6624 67.0655 56.6516 64.7999C56.6301 62.4646 58.3964 60.5476 60.5611 60.5824C66.1183 60.9774 64.4598 68.5758 62.5535 72.1078C61.3688 74.3153 59.678 76.1975 57.6425 77.4755C48.2727 83.5635 36.1781 75.5469 37.0505 63.7775L37.1474 62.1509L37.3843 60.536C39.0644 49.1267 48.6712 39.983 59.3872 39.681C71.7187 38.8909 82.9301 49.6379 83.5763 62.9758C84.2548 75.268 78.3529 87.5835 68.8539 94.2989C46.1833 110.309 16.1461 91.4524 18.2355 62.2439C19.4417 38.2403 38.2459 19.3372 60.4965 19.4418C84.7825 19.6509 103.824 41.8304 102.09 67.9949C100.065 105.801 63.3397 130.444 31.0409 115.642C-13.0617 94.6939 -7.88143 30.1074 32.1394 7.49809C72.1172 -15.0764 120.14 16.0144 119.989 64.7999L120 64.7767Z" fill="#132236"/>
</svg>
